{"title":"Playing.for.Keeps.2012.CAM.x264.AAC-UNiQUE","uid":7928919,"size":1574120937,"categoryP":"video","categoryS":"movies","magnet":"?xt=urn:btih:7dbd440abd62b008b99e9902ab3ac2bbe0e7b3f1&amp;dn=Playing.for.Keeps.2012.CAM.x264.AAC-UNiQUE&amp;tr=udp%3A%2F%2Ftracker.openbittorrent.com%3A80&amp;tr=udp%3A%2F%2Fopen.demonii.com%3A1337&amp;tr=udp%3A%2F%2Ftracker.coppersurfer.tk%3A6969&amp;tr=udp%3A%2F%2Fexodus.desync.com%3A6969","seeders":3,"leechers":3,"uploader":"haloReD","files":-1,"time":1355672413,"description":"ooooo ooo ooooo ooo o8o .oooooo. ooooo ooo oooooooooooo\n`888' `8' `888b. `8' `&quot;' d8P' `Y8b `888' `8' `888' `8\n888 8 8 `88b. 8 oooo 888 888 888 8 888\n888 8 8 `88b. 8 `888 888 888 888 8 888oooo8\n888 8 8 `88b.8 888 888 888 888 8 888 &quot;\n`88. .8' 8 `888 888 `88b d88b `88. .8' 888 o\n`YbodP' o8o `8 o888o `Y8bood8P'Ybd' `YbodP' o888ooooood8\n\n\n.........why be the same as everyone else when YOU can be UNiQUEâ„¢.........\n\n\nGeneral\nComplete name : Playing for Keeps 2012 CAM x264 AAC-UNiQUE.mp4\nFormat : MPEG-4\nFormat profile : Base Media\nCodec ID : isom\nFile size : 1.42 GiB\nDuration : 1h 36mn\nOverall bit rate mode : Variable\nOverall bit rate : 2 112 Kbps\n\nVideo\nID : 1\nFormat : AVC\nFormat/Info : Advanced Video Codec\nFormat profile : &lt;a class=&quot;__cf_email__&quot; href=&quot;/cdn-cgi/l/email-protection&quot; data-cfemail=&quot;8ac2e3ede2cac6bea4bb&quot;&gt;[email&amp;#160;protected]&lt;/a&gt;&lt;script cf-hash='f9e31' type=&quot;text/javascript&quot;&gt;\n/* &lt;![CDATA[ */!function(){try{var t=&quot;currentScript&quot;in document?document.currentScript:function(){for(var t=document.getElementsByTagName(&quot;script&quot;),e=t.length;e--;)if(t[e].getAttribute(&quot;cf-hash&quot;))return t[e]}();if(t&amp;&amp;t.previousSibling){var e,r,n,i,c=t.previousSibling,a=c.getAttribute(&quot;data-cfemail&quot;);if(a){for(e=&quot;&quot;,r=parseInt(a.substr(0,2),16),n=2;a.length-n;n+=2)i=parseInt(a.substr(n,2),16)^r,e+=String.fromCharCode(i);e=document.createTextNode(e),c.parentNode.replaceChild(e,c)}}}catch(u){}}();/* ]]&gt; */&lt;/script&gt;\nFormat settings, CABAC : Yes\nFormat settings, ReFrames : 3 frames\nCodec ID : avc1\nCodec ID/Info : Advanced Video Coding\nDuration : 1h 36mn\nBit rate mode : Variable\nBit rate : 2 028 Kbps\nMaximum bit rate : 40.0 Mbps\nWidth : 720 pixels\nHeight : 282 pixels\nDisplay aspect ratio : 2.553\nFrame rate mode : Constant\nFrame rate : 25.000 fps\nColor space : YUV\nChroma subsampling : 4:2:0\nBit depth : 8 bits\nScan type : Progressive\nBits/(Pixel*Frame) : 0.400\nStream size : 1.37 GiB (96%)\n\nAudio\nID : 2\nFormat : AAC\nFormat/Info : Advanced Audio Codec\nFormat profile : LC\nCodec ID : 40\nDuration : 1h 36mn\nBit rate mode : Variable\nBit rate : 80.7 Kbps\nMaximum bit rate : 116 Kbps\nChannel(s) : 2 channels\nChannel positions : Front: L R\nSampling rate : 44.1 KHz\nCompression mode : Lossy\nStream size : 55.7 MiB (4%)\nLanguage : English\nEncoded date : UTC 2012-12-16 13:22:13\n\nSources : Video - Muz4ina.na.ra77hvat.2012.EVG.D.TS.1400mb - Thanks!\n: Audio - LIGHT - Thanks!\n\nSample Included : Yes.\n\nStoryline\nA former sports star who's fallen on hard times starts coaching his son's soccer team as a way to get his life together. His attempts to become an adult are met with challenges from the attractive soccer moms who pursue him at every turn.\n\niMDB: http://uk.imdb.com/title/tt1540128/\n\nScreens:\n &lt;a href=&quot;\nhttp://www.shotpix.com/images/59346190191107535945.png&quot; rel=&quot;nofollow&quot; target=&quot;_NEW&quot;&gt;\nhttp://www.shotpix.com/images/59346190191107535945.png&lt;/a&gt;\n &lt;a href=&quot;\nhttp://www.shotpix.com/images/85563020047951741142.png&quot; rel=&quot;nofollow&quot; target=&quot;_NEW&quot;&gt;\nhttp://www.shotpix.com/images/85563020047951741142.png&lt;/a&gt;\n &lt;a href=&quot;\nhttp://www.shotpix.com/images/04866749700692202270.png&quot; rel=&quot;nofollow&quot; target=&quot;_NEW&quot;&gt;\nhttp://www.shotpix.com/images/04866749700692202270.png&lt;/a&gt;\n &lt;a href=&quot;\nhttp://www.shotpix.com/images/27476233518994530341.png&quot; rel=&quot;nofollow&quot; target=&quot;_NEW&quot;&gt;\nhttp://www.shotpix.com/images/27476233518994530341.png&lt;/a&gt;\n &lt;a href=&quot;\nhttp://www.shotpix.com/images/53406540570114024011.png&quot; rel=&quot;nofollow&quot; target=&quot;_NEW&quot;&gt;\nhttp://www.shotpix.com/images/53406540570114024011.png&lt;/a&gt;\n &lt;a href=&quot;\nhttp://www.shotpix.com/images/98415201929994718266.png&quot; rel=&quot;nofollow&quot; target=&quot;_NEW&quot;&gt;\nhttp://www.shotpix.com/images/98415201929994718266.png&lt;/a&gt;","torrent":{"xt":"urn:btih:7dbd440abd62b008b99e9902ab3ac2bbe0e7b3f1","amp;dn":"Playing.for.Keeps.2012.CAM.x264.AAC-UNiQUE","amp;tr":["udp%3A%2F%2Ftracker.openbittorrent.com%3A80","udp%3A%2F%2Fopen.demonii.com%3A1337","udp%3A%2F%2Ftracker.coppersurfer.tk%3A6969","udp%3A%2F%2Fexodus.desync.com%3A6969"],"infoHash":"7dbd440abd62b008b99e9902ab3ac2bbe0e7b3f1","infoHashBuffer":{"type":"Buffer","data":[125,189,68,10,189,98,176,8,185,158,153,2,171,58,194,187,224,231,179,241]},"announce":[],"urlList":[]}}